<?xml version="1.0" encoding="utf-8"?>
<!-- Generator: Adobe Illustrator 24.3.0, SVG Export Plug-In . SVG Version: 6.00 Build 0)  -->
<svg version="1.1" id="Capa_1" xmlns="http://www.w3.org/2000/svg" xmlns:xlink="http://www.w3.org/1999/xlink" x="0px" y="0px"
	 viewBox="0 0 35.7 35.7" style="enable-background:new 0 0 35.7 35.7;" xml:space="preserve">
<style type="text/css">
	.st0{fill:#FFFFFF;}
</style>
<g>
	<path class="st0" d="M33.2,14.7l0.2,0.2c0.2,0.2,0.4,0.2,0.6,0.1c0.2-0.1,0.3-0.4,0.2-0.6c-0.6-1.8-1.6-3.4-2.9-4.8
		c-2.5-2.6-5.8-4-9.4-4c-1.5,0-2.9,0.2-4.2,0.7c2.2-1.7,5-2.5,7.8-2.5c1.3,0,2.6,0.2,3.8,0.6c0.2,0.1,0.5,0,0.6-0.3
		c0.1-0.2,0-0.5-0.2-0.6C26.7,1.2,23,0,19.2,0c-4.6,0-9,1.8-12.3,4.9c-3.4,3.3-5.4,7.7-5.5,12.5c-0.1,4.8,1.6,9.3,4.9,12.7
		c3.4,3.6,8,5.5,12.9,5.5c4.6,0,9-1.8,12.3-4.9c0.1-0.1,0.2-0.2,0.3-0.3l0.1-0.2c0.2-0.2,0.2-0.5,0-0.7c-0.2-0.2-0.4-0.2-0.7-0.1
		c-1.1,0.7-2.3,1.1-3.5,1.3c4.1-2,6.8-4.8,6.1-6.2c-0.6-1.2-3.7-1-7.2,0.5l0.3-1.5c0-0.2-0.1-0.5-0.3-0.6l-2.2-1.6l3.8-0.9
		c0.4-0.1,0.6-0.4,0.5-0.8c-0.1-0.4-0.4-0.6-0.8-0.5l-5.3,1.2c0,0,0,0-0.1,0c-0.1,0-0.1,0.1-0.2,0.1c0,0,0,0,0,0
		c-3.2,2.8-3.3,3.1-3.4,3.3c-0.1,0.3,0.1,0.7,0.4,0.8c0.1,0,0.1,0,0.2,0c0.2,0,0.5-0.1,0.6-0.4c0.2-0.3,1.5-1.4,2.6-2.4l1.8,1.2
		l-2.7,2.6c-0.1,0.1-0.2,0.3-0.2,0.5l0.1,1.4c-0.6,0.4-1.1,0.9-1.5,1.3c-0.4-0.3-0.8-0.7-1.2-1.1c-3.7-3.8-3.5-9.9,0.3-13.6
		c1.8-1.7,4.2-2.7,6.7-2.7C28.9,11.7,31.4,12.8,33.2,14.7z M25.6,24.3l-0.3,1.5c-0.7,0.4-1.4,0.8-2.1,1.2l0-0.4L25.6,24.3z
		 M21.4,16.5c1,0,1.8,0.8,1.8,1.8c0,1-0.8,1.8-1.8,1.8c-1,0-1.8-0.8-1.8-1.8C19.7,17.3,20.5,16.5,21.4,16.5z"/>
</g>
</svg>
